<svg xmlns="http://www.w3.org/2000/svg" version="1.1" xmlns:xlink="http://www.w3.org/1999/xlink" xmlns:svgjs="http://svgjs.dev/svgjs" width="1000" height="1000" viewBox="0 0 1000 1000"><rect width="1000" height="1000" fill="#333366"></rect><g transform="matrix(0.39414414414414417,0,0,0.39414414414414417,302.3485527656222,150.2834008097165)"><svg viewBox="0 0 139 247" data-background-color="#333366" preserveAspectRatio="xMidYMid meet" height="1776" width="1000" xmlns="http://www.w3.org/2000/svg" xmlns:xlink="http://www.w3.org/1999/xlink"><g id="tight-bounds" transform="matrix(1,0,0,1,0.2043241000963576,-0.0999999999999801)"><svg viewBox="0 0 138.5913486005089 247.19999999999996" height="247.19999999999996" width="138.5913486005089"><g><svg viewBox="0 0 138.5913486005089 247.19999999999996" height="247.19999999999996" width="138.5913486005089"><g><svg viewBox="0 0 138.5913486005089 247.19999999999996" height="247.19999999999996" width="138.5913486005089"><g><svg viewBox="0 0 138.5913486005089 247.19999999999996" height="247.19999999999996" width="138.5913486005089" id="textblock"><g><svg viewBox="0 0 138.5913486005089 247.19999999999996" height="247.19999999999996" width="138.5913486005089"><g transform="matrix(1,0,0,1,0,0)"><svg width="138.5913486005089" viewBox="0 -36.95000076293945 33.04999923706055 58.95000076293945" height="247.19999999999996" data-palette-color="#ffffff"><path d="M31.55 0.5L31.55 0.5Q31.55-0.4 28.63-0.4 25.7-0.4 22.35 0.85L22.35 0.85Q20.6 5.6 16.48 10.68 12.35 15.75 8.2 18.88 4.05 22 1.75 22L1.75 22Q0 22 0 19.9L0 19.9Q0 16.6 6.63 10.18 13.25 3.75 20.75 0.35L20.75 0.35Q21.35-2.05 21.35-3.95L21.35-3.95Q21.35-7.5 18.15-8.5L18.15-8.5Q10.35-1.8 5.4-1.8L5.4-1.8Q2.65-1.8 2.65-3 2.65-4.2 4.78-5.88 6.9-7.55 10.33-8.83 13.75-10.1 16.9-10.1L16.9-10.1Q17.55-10.1 18.45-10L18.45-10Q23.5-14.7 27.08-20.4 30.65-26.1 30.65-30.1L30.65-30.1Q30.65-35.65 23.3-35.65L23.3-35.65Q18.95-35.65 14.13-33.13 9.3-30.6 6.25-27.38 3.2-24.15 3.2-21.95L3.2-21.95Q3.2-19.05 5.85-19.05L5.85-19.05Q8.1-19.05 11.6-20.95 15.1-22.85 17.8-25.23 20.5-27.6 20.85-28.95L20.85-28.95Q20.95-29.5 21.18-29.5 21.4-29.5 21.4-29.1L21.4-29.1Q21.4-27.3 18.48-24.38 15.55-21.45 11.55-19.2 7.55-16.95 4.85-16.95L4.85-16.95Q1.5-16.95 1.5-20.7L1.5-20.7Q1.5-22.8 3.55-25.6 5.6-28.4 8.8-30.93 12-33.45 16.43-35.2 20.85-36.95 25.1-36.95L25.1-36.95Q33.05-36.95 33.05-31.15L33.05-31.15Q33.05-26.95 29.13-20.93 25.2-14.9 19.6-9.75L19.6-9.75Q23.4-8.65 23.4-4.45L23.4-4.45Q23.4-2.5 22.8-0.5L22.8-0.5Q26.75-1.95 29.75-1.95 32.75-1.95 32.75-0.25L32.75-0.25Q32.75 0.95 31.78 1.78 30.8 2.6 30.15 2.6 29.5 2.6 29.5 2.33 29.5 2.05 29.85 1.95 30.2 1.85 30.88 1.38 31.55 0.9 31.55 0.5ZM1.9 19.2L1.9 19.2Q1.9 20.2 2.9 20.2L2.9 20.2Q4.65 20.2 8.08 17.7 11.5 15.2 15.15 10.7 18.8 6.2 20.35 1.65L20.35 1.65Q13.55 4.65 7.73 10.48 1.9 16.3 1.9 19.2ZM17.1-8.75L17.1-8.75Q16.3-8.9 14.75-8.9 13.2-8.9 10.65-7.98 8.1-7.05 6.43-5.88 4.75-4.7 4.75-3.9 4.75-3.1 6.7-3.1L6.7-3.1Q10.7-3.1 17.1-8.75Z" opacity="1" transform="matrix(1,0,0,1,0,0)" fill="#ffffff" class="undefined-text-0" data-fill-palette-color="primary" id="text-0"></path></svg></g></svg></g></svg></g></svg></g><g></g></svg></g><defs></defs></svg><rect width="138.5913486005089" height="247.19999999999996" fill="none" stroke="none" visibility="hidden"></rect></g></svg></g></svg>